<svg width="221" height="222" viewBox="0 0 221 222" fill="none" xmlns="http://www.w3.org/2000/svg">
<rect width="220.816" height="221.041" fill="white"/>
<path fill-rule="evenodd" clip-rule="evenodd" d="M43.9409 107.423C43.9409 107.423 37.361 101.802 46.5921 82.3951C55.8233 62.9879 74.5179 67.2416 86.4675 59.6081C104.124 48.3292 96.8867 39.5026 118.902 38.0798C146.622 36.2885 148.191 65.2371 162.06 65.2371C162.972 65.2371 184.568 56.5597 187.729 80.3145C189.32 92.2776 162.06 110.521 162.06 110.521C162.06 110.521 150.714 120.805 150.091 125.883C147.478 147.18 152.927 171.573 91.8617 182.802C83.964 184.255 70.8502 179.001 63.6153 169.297C57.9472 161.695 35.2105 167.089 33.0881 142.094C32.0183 129.496 43.9409 107.423 43.9409 107.423Z" fill="#ECECEC"/>
<path d="M84.673 90.5374C84.8789 90.4159 85.1444 90.4844 85.2659 90.6903L85.756 91.5172C87.7023 94.7825 88.4807 95.8429 89.3081 96.3222C89.9881 96.7162 90.6912 96.5939 91.9783 95.8391L92.1502 95.7359C92.9597 95.2313 96.6638 92.6869 98.0959 91.7733C98.2975 91.6447 98.5652 91.7038 98.6938 91.9054C98.8224 92.107 98.7632 92.3747 98.5617 92.5033L98.3412 92.6451C96.7453 93.6797 93.1602 96.1419 92.5255 96.5214C90.9672 97.4531 89.957 97.6625 88.9446 97.1112L88.874 97.0715C87.7863 96.4413 86.9403 95.2324 84.5201 91.1303C84.3986 90.9244 84.467 90.6589 84.673 90.5374Z" fill="white"/>
<path d="M91.6851 95.542C91.9221 95.5102 92.14 95.6766 92.1717 95.9136C92.3191 97.015 92.6724 98.1194 93.2331 99.228C93.341 99.4413 93.2555 99.7018 93.0421 99.8097C92.8288 99.9176 92.5683 99.8322 92.4604 99.6188C91.857 98.4259 91.4741 97.2287 91.3134 96.0285C91.2817 95.7915 91.4481 95.5737 91.6851 95.542Z" fill="white"/>
<path fill-rule="evenodd" clip-rule="evenodd" d="M142.125 121.986C142.055 122.163 141.902 122.408 141.724 122.639L141.877 122.798L142.055 122.987L142.094 123.025C142.112 123.04 142.125 123.05 142.135 123.052C142.192 123.061 142.232 123.113 142.225 123.171C142.216 123.228 142.164 123.269 142.106 123.26C142.054 123.259 141.865 123.185 141.64 123.003C141.599 122.969 141.559 122.931 141.517 122.889C141.387 123.034 141.256 123.159 141.143 123.236C140.976 123.351 140.832 123.36 140.763 123.314C140.695 123.268 140.63 123.116 140.74 122.808C140.757 122.752 140.817 122.723 140.872 122.74C140.927 122.757 140.957 122.816 140.94 122.872C140.923 122.929 140.921 122.981 140.921 123.023L140.985 122.979C141.007 122.963 141.03 122.945 141.052 122.924C141.129 122.847 141.215 122.755 141.302 122.655C141.165 122.495 141.025 122.307 140.911 122.091C140.856 121.986 140.812 121.874 140.77 121.756C140.741 121.69 140.771 121.613 140.837 121.584C140.903 121.555 140.98 121.585 141.009 121.65C141.135 121.915 141.297 122.142 141.456 122.338L141.509 122.401C141.654 122.212 141.778 122.02 141.835 121.873C141.866 121.794 141.956 121.754 142.036 121.785C142.117 121.817 142.156 121.906 142.125 121.986Z" fill="white"/>
<path fill-rule="evenodd" clip-rule="evenodd" d="M77.7026 67.3662L77.4387 67.3185C75.965 67.0445 74.8351 66.7082 72.7244 65.9763C72.4823 65.8924 72.3541 65.6282 72.4381 65.3861C72.522 65.144 72.7863 65.0159 73.0283 65.0998L73.5543 65.2808C75.4059 65.9127 76.4448 66.2024 77.8637 66.4526C82.638 67.2944 86.2127 64.8433 86.5052 60.1686C86.5212 59.9129 86.7414 59.7186 86.9971 59.7346C87.2528 59.7505 87.4471 59.9708 87.4311 60.2265C87.1022 65.4839 82.9958 68.2996 77.7026 67.3662Z" fill="#00160A"/>
<path fill-rule="evenodd" clip-rule="evenodd" d="M89.6318 72.3724L89.8982 72.9644L90.5054 73.1387C90.5382 73.1481 90.5572 73.1824 90.5478 73.2152C90.5449 73.2253 90.5394 73.2345 90.532 73.242L90.0706 73.7013L90.0965 74.3622C90.0978 74.3964 90.0712 74.4251 90.0371 74.4265C90.0255 74.4269 90.0141 74.4241 90.004 74.4184L89.4817 74.1209C89.4654 74.1116 89.4457 74.1103 89.4283 74.1172L88.8697 74.3391C88.8379 74.3517 88.802 74.3362 88.7893 74.3044C88.7851 74.2937 88.7839 74.282 88.786 74.2706L88.9035 73.6196L88.5106 73.1006C88.49 73.0734 88.4953 73.0346 88.5226 73.014C88.531 73.0076 88.5408 73.0035 88.5513 73.002L89.1769 72.9139L89.5231 72.3648C89.5413 72.3359 89.5795 72.3273 89.6084 72.3455C89.6186 72.352 89.6268 72.3613 89.6318 72.3724Z" fill="#00160A"/>
<path d="M150.652 57.494C150.891 57.477 151.098 57.6565 151.115 57.895C151.132 58.1335 150.953 58.3407 150.714 58.3577C149.006 58.4796 147.664 59.1417 147.068 60.7794C147.032 60.878 147.002 60.9731 146.978 61.0636L146.962 61.1257L146.988 61.0712C147.739 59.5387 149.186 58.4739 150.863 58.2037L150.973 58.1872C151.21 58.1542 151.429 58.3194 151.462 58.5562C151.495 58.793 151.33 59.0118 151.093 59.0448C149.535 59.2624 148.202 60.298 147.62 61.7835L147.582 61.8832C147.306 62.6424 146.643 63.0065 146.216 62.3567C145.955 61.9604 145.973 61.2566 146.254 60.4832C146.968 58.5216 148.606 57.64 150.652 57.494Z" fill="white"/>
<path d="M148.68 54.2685C148.919 54.2515 149.126 54.4311 149.143 54.6696C149.16 54.9081 148.98 55.1152 148.742 55.1322C146.024 55.3261 143.641 57.0911 142.693 59.6962C142.412 60.4685 142.36 61.1288 142.46 61.4632L142.472 61.5005L142.492 61.4729C142.54 61.3995 142.594 61.2942 142.648 61.1577L142.671 61.0972C143.672 58.3454 146.1 56.4183 148.949 56.0207C149.185 55.9877 149.404 56.1529 149.437 56.3897C149.47 56.6265 149.305 56.8453 149.068 56.8783C146.577 57.2261 144.447 58.889 143.53 61.2716L143.484 61.3934C143.113 62.4138 142.31 62.8546 141.796 62.0733C141.444 61.5378 141.469 60.527 141.879 59.4001C142.945 56.471 145.625 54.4865 148.68 54.2685Z" fill="white"/>
<path d="M146.023 49.9678C146.262 49.9508 146.469 50.1303 146.486 50.3689C146.503 50.6074 146.323 50.8145 146.085 50.8315C142.209 51.1081 138.81 53.6254 137.457 57.3411C136.997 58.6057 136.959 59.6775 137.21 60.123L137.233 60.1607C137.27 60.2173 137.258 60.2189 137.267 60.2111L137.273 60.2074C137.4 60.1374 137.569 59.8993 137.722 59.5043L137.753 59.4232C139.134 55.6281 142.483 52.9704 146.411 52.422C146.648 52.389 146.867 52.5542 146.9 52.791C146.933 53.0278 146.768 53.2466 146.531 53.2796C142.964 53.7775 139.917 56.1652 138.617 59.5839L138.566 59.7194C138.086 61.0397 137.122 61.5686 136.509 60.6362C136.052 59.941 136.086 58.5778 136.644 57.045C138.114 53.0054 141.809 50.2684 146.023 49.9678Z" fill="white"/>
<path d="M141.278 45.9258C141.513 45.8798 141.74 46.0328 141.786 46.2675C141.832 46.5021 141.679 46.7296 141.445 46.7756C137.936 47.4628 135.114 50.143 134.295 53.6883C134.018 54.8881 134.102 55.8637 134.374 56.2359L134.41 56.2825L134.413 56.289L134.418 56.2851C134.515 56.1973 134.629 55.9729 134.717 55.625L134.736 55.5486C135.577 51.9024 138.357 49.08 141.908 48.1322C142.139 48.0705 142.376 48.2078 142.438 48.4389C142.499 48.6699 142.362 48.9072 142.131 48.9688C138.932 49.8228 136.419 52.3413 135.612 55.605L135.579 55.7434C135.282 57.0293 134.43 57.6432 133.739 56.8292C133.234 56.2338 133.11 54.9704 133.451 53.4935C134.347 49.6124 137.437 46.6781 141.278 45.9258Z" fill="white"/>
<path d="M93.2848 99.3232L93.5348 99.2323C95.897 98.3846 97.8901 98.0105 98.3963 98.5256C98.8403 98.9774 99.236 99.7955 99.6111 100.995C99.6824 101.224 99.5553 101.466 99.327 101.538C99.0988 101.609 98.856 101.482 98.7846 101.254C98.4602 100.216 98.1293 99.5176 97.8162 99.1723L97.8033 99.1588L97.7922 99.1594C97.7329 99.1473 97.6441 99.1412 97.5308 99.1434C97.2813 99.1482 96.9403 99.1922 96.533 99.2729C95.6952 99.4389 94.6361 99.7477 93.5845 100.136C91.826 100.784 90.3611 101.546 89.5519 102.235C89.2548 102.488 88.7124 101.784 89.2344 101.38C90.1736 100.655 91.5981 99.9454 93.2848 99.3232Z" fill="white"/>
<path d="M92.0953 91.1441C92.0953 92.5882 93.6226 94.1518 93.9475 94.2408C94.1781 94.3039 90.2046 96.8929 90.2046 96.8929C88.7689 97.0818 87.9258 95.8683 87.9258 94.0604C87.9258 93.8213 92.0953 90.9049 92.0953 91.1441Z" fill="white"/>
<path fill-rule="evenodd" clip-rule="evenodd" d="M87.4101 91.9032C87.9131 91.8054 88.2548 91.3863 88.1733 90.9672C88.0918 90.5481 87.618 90.2875 87.115 90.3853C86.6121 90.4831 86.2704 90.9021 86.3519 91.3212C86.4333 91.7404 86.9071 92.0009 87.4101 91.9032Z" fill="#FFB61D"/>
<path d="M138.66 43.525C138.895 43.484 139.119 43.6417 139.161 43.8773C139.202 44.1129 139.044 44.3371 138.808 44.3781C137.688 44.5733 136.558 45.2514 135.393 46.3301C133.881 47.7307 132.882 49.6661 132.331 52.2465C131.887 54.3255 132.297 56.9232 133.457 59.2069C134.776 61.8051 137.111 62.4472 139.834 62.9445C142.628 63.4549 143.401 63.1397 146.041 62.2009L146.285 62.1126C146.645 61.9758 148.333 61.3156 148.739 61.1929C149.592 60.9347 150.175 60.9563 150.597 61.4063C150.761 61.5807 150.752 61.8547 150.578 62.0183C150.414 62.1717 150.163 62.1737 149.998 62.0296L149.966 61.9989C149.841 61.8661 149.584 61.8507 149.065 61.9994L148.989 62.0217C148.599 62.1398 146.769 62.858 146.532 62.9445C143.68 63.9857 142.712 64.3505 139.678 63.7963C136.671 63.2471 134.12 62.4249 132.685 59.5991C131.437 57.1433 130.997 54.3443 131.484 52.0657C132.072 49.3117 133.161 47.2173 134.805 45.6947C136.092 44.5029 137.374 43.7489 138.66 43.525Z" fill="white"/>
<path d="M159.027 77.9754C156.559 77.8492 154.615 79.7555 154.595 82.3144C154.578 84.4704 155.792 86.2457 157.46 86.5897C158.135 86.7288 159.43 86.5615 160.391 86.0227C161.85 85.2404 162.965 83.632 163.105 82.2617C163.334 80.0291 161.527 78.1032 159.027 77.9754Z" fill="white"/>
<path d="M114.302 77.5246C115.09 79.1169 116.314 82.7948 115.785 82.7771C114.314 82.7279 112.346 80.4675 110.97 77.4111L110.861 77.1653C109.659 74.3903 108.94 72.6469 109.775 72.313C110.64 71.9676 112.674 74.2382 114.302 77.5246Z" fill="white"/>
<path fill-rule="evenodd" clip-rule="evenodd" d="M109.775 72.2783C110.64 71.9329 112.704 74.0998 114.332 77.3861C115.12 78.9784 115.655 80.5059 115.794 81.6013C115.794 81.6013 113.132 75.9912 111.508 73.9364C110.884 73.1471 109.775 72.2783 109.775 72.2783Z" fill="#E7EAEE"/>
<path d="M109.322 86.407C109.386 86.1765 109.624 86.041 109.855 86.1044C110.085 86.1678 110.221 86.4061 110.157 86.6367C110.076 86.9332 108.929 87.7111 106.426 89.2536L104.847 90.2202C101.729 92.1184 99.6485 93.333 99.3883 93.333C97.6668 93.333 96.1154 91.7089 94.9829 89.1464C93.994 86.9089 93.4805 84.2456 93.7124 82.5002C93.7848 81.9555 95.5997 80.5453 98.402 78.656L98.8034 78.387C101.283 76.7354 103.402 75.5105 104.168 75.3558C104.403 75.3085 104.631 75.4602 104.678 75.6946C104.708 75.8412 97.8743 81.6014 97.2068 85.4246C96.7548 88.0132 98.4635 92.4254 99.3117 92.4653L99.3883 92.4671C99.3194 92.4671 99.3415 92.451 99.3496 92.4464L99.4276 92.4062C99.4851 92.376 99.5534 92.3392 99.632 92.296L99.9923 92.0945C100.13 92.0164 100.284 91.9284 100.452 91.8314L100.881 91.5818C101.702 91.1029 102.725 90.4931 103.769 89.8614L104.762 89.2576C105.97 88.5199 107.061 87.8396 107.881 87.3114L108.303 87.037C108.565 86.8654 108.786 86.7169 108.962 86.5938L109.027 86.5488C109.124 86.4801 109.205 86.421 109.268 86.3725C109.268 86.3725 109.34 86.3443 109.322 86.407Z" fill="white"/>
<path fill-rule="evenodd" clip-rule="evenodd" d="M110.181 77.7666C109.134 75.4436 108.672 73.3148 109.023 72.0258C108.389 72.2269 107.598 72.5885 106.812 73.0392C105.768 73.6382 104.94 74.3078 104.92 74.4532C104.718 75.9726 105.493 78.9287 106.78 81.5641C108.157 84.383 109.796 86.1936 111.064 86.1936C111.185 86.1936 111.533 86.1219 111.881 86.0003C112.376 85.8272 112.84 85.575 113.221 85.2447C113.41 85.0805 113.605 84.8949 113.81 84.6877L114.056 84.4332C114.201 84.2796 114.351 84.1142 114.585 83.8522L114.911 83.4883L114.925 83.4729C113.294 82.8768 111.587 80.7755 110.311 78.0505L110.181 77.7666ZM104.062 74.3392C104.197 73.3255 107.992 71.1344 109.723 70.9929C109.796 70.9475 109.873 70.9081 109.956 70.875C111.456 70.2757 113.741 72.8429 115.574 76.4551L115.7 76.7059C116.527 78.3771 117.092 79.9896 117.246 81.1957C117.43 82.6371 117.012 83.5927 115.918 83.6417C115.889 83.7552 115.815 83.8502 115.716 83.9074L115.699 83.916L115.657 83.9587C115.614 84.0028 115.563 84.0575 115.485 84.1442L114.947 84.7447C114.752 84.9598 114.614 85.1058 114.426 85.2958C114.207 85.5179 113.996 85.7185 113.789 85.8984C112.95 86.6265 111.711 87.0595 111.064 87.0595C110.721 87.0595 110.373 86.9796 110.025 86.8272C109.654 87.2149 108.51 87.9691 106.427 89.2535L104.847 90.2201C101.729 92.1182 99.6485 93.3328 99.3883 93.3328C98.7987 93.3328 98.2291 93.1423 97.6894 92.7889C97.6845 92.7924 97.6794 92.7958 97.6742 92.7991L97.4538 92.9409C96.6867 93.4382 95.4601 94.2653 94.3225 95.0323L94.3224 95.0324L94.3224 95.0324L94.2512 95.0804C94.3985 96.1318 94.7333 97.186 95.2571 98.244C97.1167 97.6689 98.5896 97.4747 99.0146 97.9072C99.4586 98.3589 99.8543 99.177 100.229 100.377C100.301 100.605 100.174 100.848 99.9453 100.919C99.7171 100.991 99.4743 100.863 99.4029 100.635C99.0785 99.5975 98.7476 98.8991 98.4345 98.5538L98.4216 98.5403L98.4105 98.5409C98.3512 98.5288 98.2624 98.5227 98.1491 98.5249C97.8996 98.5297 97.5586 98.5737 97.1513 98.6544C96.3135 98.8204 95.2544 99.1292 94.2028 99.5171C91.7987 100.404 89.9433 101.503 89.562 102.336C89.4504 102.579 89.4647 102.936 89.5981 103.482L89.6229 103.581C89.643 103.658 89.6639 103.735 89.6912 103.832L89.8476 104.385L89.8686 104.465C89.9287 104.697 89.7898 104.933 89.5583 104.993C89.3269 105.053 89.0905 104.914 89.0305 104.683L88.9536 104.403L88.8255 103.951C88.8109 103.897 88.7977 103.848 88.7847 103.798C88.5819 103.016 88.5492 102.467 88.7747 101.975C89.157 101.14 90.3528 100.275 92.018 99.4891L91.6558 98.5536L91.5664 98.317C91.4293 97.9481 91.2696 97.4479 91.1718 97.0829C89.8709 97.7841 88.9649 97.9013 88.0572 97.407L87.9865 97.3673C87.807 97.2632 87.6341 97.1435 87.4596 96.9975L82.3853 100.08C82.4324 100.181 82.48 100.284 82.5282 100.387C82.7558 100.875 82.3543 101.221 81.7384 101.49L81.6719 101.518C81.1425 101.738 80.6648 101.788 80.3804 101.476C79.2004 100.18 77.9513 97.0824 78.6233 96.3738C78.7523 96.2378 79.093 96.0352 79.7372 95.6973L79.7885 95.6706C79.8017 95.6615 79.8154 95.653 79.8298 95.6452L84.5732 93.0753C84.5841 93.0694 84.5951 93.064 84.6062 93.0592C84.3133 92.5748 83.9921 92.0354 83.6371 91.4337C83.583 91.3463 83.5631 91.2442 83.5767 91.1461C83.5854 91.0838 83.6077 91.023 83.6434 90.9687C83.663 90.9387 83.6866 90.9109 83.7138 90.8861C84.689 89.9612 86.0178 88.9969 87.6847 87.9586L87.8868 87.8334C88.6082 87.3886 90.0713 86.5541 91.3143 85.8451L91.3145 85.845C92.2786 85.2951 93.1103 84.8208 93.3608 84.6623L93.4215 84.6221C93.512 84.5558 93.6198 84.5299 93.7232 84.541C93.6409 83.79 93.6338 83.0922 93.7124 82.5C93.7848 81.9553 95.5997 80.5451 98.4021 78.6559L98.8034 78.3868C101.152 76.8221 103.178 75.6404 104.036 75.3888C104.013 75.0011 104.021 74.648 104.062 74.3392ZM104.131 76.2668C103.29 76.5743 101.184 77.8246 98.8861 79.3738L98.5181 79.6234C97.4839 80.3291 96.5285 81.0171 95.8068 81.5778L95.6063 81.7351C95.2843 81.9903 95.0237 82.2102 94.8348 82.3866C94.74 82.475 94.6653 82.5507 94.6126 82.611L94.5757 82.6544C94.5677 82.6627 94.5656 82.6595 94.5685 82.6323L94.5708 82.6141C94.5699 82.6211 94.5691 82.6271 94.5685 82.6323L94.5571 82.7252C94.1408 86.379 96.7828 92.3461 99.3117 92.4651L99.3712 92.4665C99.3762 92.4668 99.3819 92.4669 99.3883 92.4669L99.3712 92.4665C99.3235 92.464 99.3423 92.4504 99.3496 92.4463L99.4277 92.406C99.4852 92.3759 99.5534 92.339 99.6321 92.2959L99.9923 92.0944C100.13 92.0163 100.284 91.9283 100.452 91.8313L100.881 91.5817C101.702 91.1027 102.725 90.4929 103.769 89.8612L104.762 89.2575C105.97 88.5197 107.061 87.8395 107.881 87.3112L108.303 87.0368C108.565 86.8652 108.786 86.7167 108.963 86.5936L109.027 86.5487C109.12 86.4827 109.199 86.4256 109.261 86.3782C108.146 85.5598 107.047 84.0484 106.072 82.0865L106.002 81.9441C105.063 80.0208 104.383 77.938 104.131 76.2668ZM93.8427 85.3804C93.5303 85.5771 92.6087 86.1033 91.5833 86.6888C90.3683 87.3826 89.0074 88.1597 88.3412 88.5704C86.7677 89.5406 85.4986 90.4399 84.5565 91.2866L84.8686 91.813C86.234 94.1038 87.0246 95.3094 87.6606 95.9904C87.4493 95.4893 87.3399 94.8533 87.3399 94.0557C87.3399 94.0189 87.3444 93.9833 87.3531 93.9492C87.311 93.7834 87.3702 93.6012 87.5166 93.4937L87.8114 93.2745C87.9883 93.1409 88.2793 92.9185 88.6101 92.6657L88.6102 92.6656L88.6104 92.6654C89.3346 92.1121 90.2494 91.413 90.5758 91.1791C91.6026 90.4437 92.3594 90.031 93.0485 89.8877C93.3776 89.8193 93.6333 90.014 93.7075 90.3156L93.7196 90.3705C93.7368 90.4602 93.7401 90.5485 93.7396 90.7413L93.7394 90.8024C93.7358 91.5228 93.8073 91.9386 94.1124 92.4188C94.3212 92.7475 94.628 93.0474 95.0554 93.3159C95.1002 93.344 95.138 93.379 95.1684 93.4185C95.858 92.9554 96.504 92.5247 96.9805 92.2158C96.2296 91.4889 95.5532 90.4365 94.9829 89.1462C94.4517 87.9444 94.0577 86.6197 93.8427 85.3804ZM116.387 81.3053C116.247 80.2099 115.712 78.6824 114.924 77.0901C113.297 73.8037 111.142 71.3337 110.277 71.6791C109.442 72.0131 109.66 74.3902 110.862 77.1652L110.97 77.411C112.347 80.4674 114.314 82.7278 115.785 82.777C116.315 82.7947 116.522 82.3622 116.387 81.3053ZM85.0536 93.7912C85.8047 95.0055 86.3535 95.8078 86.8315 96.3659L82.021 99.2877C81.5283 98.2074 81.0875 97.2019 80.6598 96.1804L84.9857 93.8366C85.0102 93.8234 85.0328 93.8081 85.0536 93.7912ZM94.4268 98.5171C93.96 97.5517 93.6375 96.5835 93.4603 95.6133C92.8387 96.0316 92.2978 96.3938 91.95 96.6197C92.0096 96.9184 92.231 97.6274 92.4217 98.1316L92.777 99.0462L92.8108 99.1355C93.16 98.9881 93.525 98.8442 93.9031 98.7047L94.1531 98.6138C94.2449 98.5808 94.3361 98.5486 94.4268 98.5171ZM94.4112 93.928C93.9678 93.6206 93.6278 93.2709 93.3815 92.8832C92.9828 92.2557 92.8781 91.7198 92.8735 90.9102L92.8733 90.8378L92.8121 90.8607C92.3731 91.0311 91.8492 91.3393 91.191 91.8042L91.08 91.8831C90.7666 92.1076 89.8748 92.7891 89.1554 93.3388L89.1554 93.3389C88.7554 93.6445 88.4087 93.9095 88.2444 94.0324L88.2058 94.061C88.2067 95.5014 88.5662 96.1624 89.2349 96.483L89.2884 96.5076C89.4478 96.5781 89.5615 96.6136 89.8864 96.7026C89.8929 96.7043 89.8993 96.7063 89.9056 96.7083C90.2428 96.5949 90.6293 96.4056 91.0908 96.1349L91.2628 96.0317C91.6439 95.7941 92.6669 95.1042 93.7923 94.3453L93.7926 94.3451L94.4112 93.928ZM79.8945 96.5945L79.9609 96.7525C80.4207 97.8428 80.8986 98.9225 81.4409 100.1L81.6518 100.557C81.5827 100.603 81.4918 100.653 81.3918 100.696C81.2483 100.759 81.1025 100.803 80.993 100.818L80.9581 100.821L80.9054 100.758C80.4955 100.254 80.0198 99.3963 79.6761 98.5437C79.493 98.0896 79.3626 97.6731 79.3038 97.3531C79.2798 97.2227 79.2688 97.1132 79.2697 97.0301L79.2723 96.9754C79.2731 96.9621 79.2731 96.9552 79.2698 96.9542L79.2828 96.9454C79.356 96.8949 79.543 96.7855 79.8208 96.6345L79.8945 96.5945ZM85.8669 95.6407C85.6995 95.47 85.4254 95.4673 85.2547 95.6348C84.9544 95.9293 84.5336 96.2036 83.7987 96.6116L83.0509 97.0266C82.8533 97.1392 82.6915 97.2362 82.545 97.3313C82.4225 97.4107 82.3131 97.4874 82.2148 97.5634C82.0256 97.7096 81.9907 97.9815 82.1369 98.1707C82.2831 98.3599 82.555 98.3948 82.7442 98.2485C82.8223 98.1882 82.9126 98.1249 83.0162 98.0577C83.1118 97.9957 83.217 97.9314 83.3386 97.8602L83.577 97.7238L84.3368 97.303C85.0667 96.8932 85.5065 96.6007 85.861 96.2529C86.0317 96.0855 86.0344 95.8114 85.8669 95.6407Z" fill="#00160A"/>
<path d="M76.1816 139.608C78.3467 151.679 86.4615 160.754 96.8163 162.893C98.7171 163.286 102.008 163.338 105.417 162.897C109.808 162.328 114.081 161.025 117.84 158.912C128.164 153.363 135.999 142.038 137.014 132.124C137.906 123.416 134.58 115.371 128.557 109.632C128.557 109.632 109.638 118.924 100.351 124.206C92.2695 128.802 76.1816 139.608 76.1816 139.608Z" fill="white"/>
<path d="M120.242 103.611C116.361 101.696 111.499 100.184 106.731 99.94C89.246 99.046 75.494 113.014 75.3506 131.031C75.3506 131.031 94.8662 118.601 105.005 112.603C110.049 109.62 120.242 103.611 120.242 103.611Z" fill="white"/>
<path fill-rule="evenodd" clip-rule="evenodd" d="M156.207 94.4285C156.149 97.4387 152.963 102.449 147.843 108.119C144.134 112.226 139.818 116.195 136.199 118.871L135.973 119.036L136.123 119.7C137.003 123.557 138.152 127.75 137.718 131.978C136.664 142.241 128.637 153.819 118.029 159.508C114.161 161.678 109.763 163.017 105.252 163.599L104.822 163.652C101.458 164.049 98.2398 163.983 96.2729 163.577C88.6382 162.003 82.1745 156.666 78.2666 148.942C78.2535 148.916 78.2432 148.89 78.2357 148.863C77.7212 149.156 77.029 149.484 76.7129 149.592L75.8468 149.884C66.5132 153.023 57.26 155.65 53.48 154.011C52.041 153.387 51.5491 152.187 52.1509 150.574C52.7358 149.007 54.3574 146.988 57.0781 144.475L57.2276 144.338C59.8057 141.974 65.5308 137.656 74.403 131.383L74.4053 131.267C74.8382 112.678 89.2777 98.5068 107.428 99.6636C112.979 100.017 117.4 101.99 119.609 103.202L120.58 102.681C129.688 97.8105 136.996 94.3872 142.571 92.3382C151.741 88.9686 156.276 90.544 156.207 94.4285ZM142.87 94.335C132.617 98.1029 116.412 106.577 93.8508 120.208L93.1652 120.623C75.5971 131.258 63.964 139.337 57.8127 144.976L57.5095 145.256L57.2221 145.526C52.6045 149.888 51.786 152.332 53.8245 153.216C57.314 154.73 66.6851 152.178 75.8621 149.168L76.7129 148.888C77.5313 148.617 78.074 148.461 78.41 148.389C78.4246 148.379 78.4406 148.369 78.4575 148.361C78.5723 148.303 78.7007 148.3 78.8117 148.344C78.8357 148.349 78.8514 148.356 78.8596 148.367C78.9344 148.407 78.998 148.47 79.0392 148.552C82.8329 156.05 89.0841 160.619 96.4477 162.137C98.3592 162.531 101.584 162.589 104.94 162.174L105.141 162.149C109.548 161.579 113.841 160.865 117.613 158.749C127.979 153.19 135.833 141.861 136.856 131.89C137.294 127.629 136.736 123.445 135.251 119.552C135.129 119.638 135.007 119.722 134.887 119.804C134.659 119.959 134.744 119.708 135.142 119.049C135.163 118.963 135.211 118.885 135.279 118.826L135.401 118.632C135.444 118.564 135.489 118.494 135.537 118.421L136.05 117.988C140.886 113.897 144.603 110.414 147.2 107.538L147.497 107.208C152.302 101.831 155.289 97.0806 155.338 94.4125C155.393 91.4857 151.531 91.1523 142.87 94.335ZM99.394 149.089C100.556 152.64 98.7983 154.923 95.7047 155.041C92.8463 155.15 90.2434 153.349 90.376 150.79C90.4907 148.578 92.0053 146.213 93.8701 145.344C96.1253 144.294 98.2419 145.568 99.394 149.089ZM94.327 146.326C92.8348 147.02 91.5514 149.024 91.4569 150.846C91.3629 152.66 93.3681 154.047 95.6634 153.96C98.0632 153.868 99.295 152.267 98.3653 149.426C97.3972 146.467 95.9253 145.581 94.327 146.326ZM123.013 141.854C124.495 144.655 124.107 147.407 121.828 148.64L121.764 148.674L121.731 148.707C118.675 151.733 114.856 152.1 112.366 149.907L112.281 149.83C109.413 147.203 110.096 142.689 114.66 139.15C117.597 136.873 121.185 138.4 123.013 141.854ZM115.229 139.883C111.085 143.096 110.503 146.943 112.908 149.146C114.633 150.726 117.181 150.813 119.561 149.28L119.608 149.249L119.59 149.245C119.426 149.202 119.293 149.069 119.256 148.895L119.248 148.851C119.218 148.597 119.4 148.366 119.654 148.336C120.236 148.267 120.741 148.127 121.17 147.925L121.228 147.897L121.299 147.824C121.578 147.53 121.851 147.21 122.115 146.864L122.203 146.748C122.302 146.615 122.459 146.55 122.613 146.563L122.625 146.564L122.631 146.552C123.187 145.454 123.055 143.966 122.242 142.381L122.193 142.288C120.603 139.284 117.632 138.02 115.229 139.883ZM142.819 106.591C142.58 107.438 141.855 108.6 140.742 109.977C138.803 112.376 135.89 115.169 133.344 117.079L133.909 116.458V116.458C133.903 116.453 133.899 116.447 133.895 116.439L133.7 116.081C132.426 113.755 131.006 111.461 128.712 109.591C122.774 112.039 115.965 115.386 109.762 118.885L107.729 120.035C92.7555 128.517 84.8777 133.595 76.4536 139.837C76.7716 141.269 77.1722 142.666 77.6521 144.02C77.7274 144.233 76.7436 145.028 76.5635 144.93C74.883 146.056 72.2514 146.873 70.7532 146.916C69.2931 146.957 68.4495 146.366 68.8841 145.188C69.2476 144.202 70.6171 142.796 73.0816 140.911L73.3625 140.698L73.9306 140.271C83.2057 133.327 92.3879 127.692 109.337 118.131L110.046 117.733C121.67 111.244 135.132 105.399 141.297 104.859C142.565 104.748 143.14 105.45 142.819 106.591ZM75.3257 140.677L73.3824 142.143C71.6488 143.458 70.399 144.43 69.7239 145.054L69.6743 145.1C68.8502 145.873 69.783 146.077 70.7287 146.05C72.1611 146.01 74.3556 144.923 76.213 143.935C75.8697 142.871 75.5735 141.784 75.3257 140.677ZM105.723 135.976C105.955 136.035 106.095 136.27 106.036 136.502C105.977 136.734 105.742 136.874 105.51 136.815C104.346 136.52 103.658 136.633 103.435 136.947C103.287 137.155 103.369 137.509 103.646 137.736C103.862 137.913 104.15 137.997 104.348 137.954C104.52 137.917 104.617 137.784 104.617 137.451C104.617 137.212 104.811 137.018 105.05 137.018C105.289 137.018 105.483 137.212 105.483 137.451C105.483 138.174 105.121 138.672 104.532 138.8C104.059 138.903 103.507 138.741 103.097 138.406C102.492 137.911 102.294 137.056 102.729 136.445C103.206 135.775 104.251 135.602 105.723 135.976ZM86.7045 134.386C87.3722 134.587 87.6598 135.099 87.7505 135.868L87.7595 135.952L87.7705 136.078C87.772 136.099 87.7735 136.121 87.775 136.144L87.7977 136.584L87.8045 136.683C87.8081 136.726 87.8119 136.762 87.8164 136.793L87.8279 136.86L87.8349 136.889L87.847 136.9C87.9807 137.03 88.0162 137.236 87.9297 137.405L87.9076 137.443C87.778 137.644 87.51 137.702 87.3091 137.573C87.0326 137.394 86.9697 137.211 86.9362 136.684L86.9088 136.169C86.9056 136.122 86.9021 136.082 86.8977 136.036C86.8484 135.532 86.7255 135.297 86.456 135.216C85.6998 134.989 85.2657 135.221 85.1283 135.726C85.0058 136.177 85.183 136.65 85.4933 136.782L85.5719 136.811C85.7747 136.897 85.8821 137.126 85.8138 137.34C85.7411 137.568 85.4976 137.694 85.2697 137.621C84.4452 137.358 84.0535 136.379 84.2927 135.499C84.5597 134.517 85.4882 134.022 86.7045 134.386ZM117.941 127.757C119.14 129.442 118.917 131.587 116.993 132.558C116.78 132.665 116.519 132.58 116.412 132.366C116.304 132.153 116.39 131.892 116.603 131.785C117.996 131.082 118.155 129.552 117.235 128.259C116.342 127.003 115.098 126.864 114.243 128.222C113.337 129.661 113.403 130.506 114.055 130.886C114.573 131.188 115.407 131.124 115.637 130.878L115.659 130.85C115.797 130.656 116.068 130.61 116.263 130.749C116.457 130.887 116.503 131.158 116.364 131.353C115.883 132.029 114.509 132.153 113.619 131.634C112.48 130.969 112.371 129.571 113.511 127.76C114.731 125.822 116.722 126.043 117.941 127.757ZM99.9904 125.274C100.215 125.274 100.4 125.446 100.421 125.666L100.423 125.707C100.423 125.783 100.494 125.869 100.748 126.055L100.989 126.227C101.251 126.419 101.377 126.537 101.497 126.726C101.769 127.158 101.924 127.597 101.924 128.114C101.924 129.437 99.9364 131.237 97.7667 132.038C95.1656 132.998 93.0346 132.286 92.4547 129.617C92.4039 129.383 92.5522 129.152 92.7858 129.102C93.0195 129.051 93.2501 129.199 93.3009 129.433C93.7509 131.504 95.3047 132.023 97.4669 131.225C99.3339 130.536 101.058 128.975 101.058 128.114C101.058 127.781 100.957 127.493 100.765 127.189L100.739 127.152C100.694 127.097 100.626 127.036 100.501 126.944L100.216 126.739C99.7412 126.389 99.5574 126.152 99.5574 125.707C99.5574 125.468 99.7512 125.274 99.9904 125.274ZM102.023 101.277L101.749 101.308C86.9752 103.084 75.8919 114.901 75.2874 130.758L76.8727 129.643C81.4227 126.449 86.704 122.801 92.7167 118.698L93.8883 117.99C97.3861 115.88 100.73 113.894 103.923 112.031C103.865 111.929 103.848 111.803 103.888 111.683C104.111 111.001 104.317 110.543 104.695 110.085C105.878 108.65 107.499 107.949 108.647 108.85C108.76 108.939 108.817 109.072 108.813 109.206L109.833 108.624C113.044 106.795 116.084 105.107 118.952 103.556L117.832 103.237C116.17 102.769 114.103 102.215 112.044 101.788C112.063 103.158 111.038 104.252 109.334 105.004C107.885 105.644 105.998 105.988 104.656 105.908C102.145 105.759 100.732 103.556 102.023 101.277ZM127.939 120.079C128.999 122.974 128.124 125.606 125.479 125.589C121.71 125.565 118.029 122.273 118.624 119.325C118.889 118.01 119.878 116.846 121.598 116.266C124.344 115.338 126.861 117.133 127.939 120.079ZM121.875 117.086C120.454 117.566 119.678 118.478 119.473 119.496C119 121.836 122.205 124.702 125.485 124.723C127.363 124.735 128.009 122.79 127.126 120.377C126.191 117.824 124.102 116.334 121.875 117.086ZM90.0384 106.836L90.0692 106.881L90.2776 107.212C90.3797 107.381 90.4711 107.546 90.5581 107.724C91.517 109.684 91.4923 112.254 89.8695 115.822C89.1343 117.438 87.2616 119.61 85.6261 120.906C83.5379 122.562 81.9787 122.937 80.1177 122.733L79.5655 122.668L79.4981 122.662C79.4612 122.659 79.4376 122.659 79.4117 122.66L79.3738 122.662C79.345 122.663 79.3351 122.662 79.3334 122.658L79.3333 122.655L79.3194 122.677C79.1939 122.857 78.9499 122.917 78.754 122.808C78.545 122.691 78.4699 122.428 78.5861 122.219C78.7418 121.939 79.0018 121.812 79.3328 121.797C79.4205 121.793 79.5132 121.795 79.6236 121.805L79.7528 121.817L80.1099 121.861C81.8051 122.066 83.1537 121.761 85.0883 120.228C86.6244 119.01 88.4099 116.94 89.0813 115.463C90.5999 112.125 90.622 109.825 89.7802 108.104C89.7242 107.989 89.6657 107.881 89.6024 107.771L89.5117 107.62L89.3302 107.333C89.2031 107.13 89.2644 106.863 89.467 106.736C89.6569 106.617 89.9036 106.663 90.0384 106.836ZM141.373 105.722C138.605 105.964 134.266 107.331 129.264 109.365L129.41 109.494C130.802 110.743 133.611 113.705 134.49 115.817L135.366 114.846C137.527 112.443 139.094 110.638 140.069 109.432L140.266 109.185C141.198 108.003 141.8 107.015 141.985 106.356L142.011 106.256C142.127 105.78 141.993 105.668 141.373 105.722ZM99.9162 107.128C100.994 107.649 101.431 108.809 100.722 109.861C100.589 110.059 100.319 110.111 100.121 109.978C99.9229 109.844 99.8705 109.575 100.004 109.377C100.394 108.798 100.174 108.215 99.5393 107.908C98.8707 107.585 98.1382 107.771 97.7601 108.476C97.4118 109.126 97.3879 110.007 97.666 110.583C97.9102 111.089 98.2656 111.186 98.8078 110.778C98.9988 110.634 99.2703 110.673 99.4141 110.864C99.5579 111.055 99.5196 111.326 99.3286 111.47C98.3405 112.214 97.3624 111.947 96.8861 110.959C96.4868 110.132 96.5187 108.96 96.9969 108.067C97.6069 106.929 98.8505 106.613 99.9162 107.128ZM105.364 110.636C105.162 110.881 105.017 111.139 104.884 111.471C105.999 110.823 107.096 110.189 108.174 109.571L108.143 109.553V109.553L108.113 109.531C107.452 109.012 106.286 109.516 105.364 110.636ZM103.517 101.145L103.138 101.171L103.113 101.203C101.616 103.095 102.193 104.63 104.237 104.848C105.705 105.004 109.602 103.915 110.059 103.533C110.504 103.161 111.067 102.304 111.154 101.611C109.831 101.362 108.538 101.179 107.384 101.12C106.204 101.06 105.041 101.062 103.898 101.122L103.517 101.145Z" fill="#00160A"/>
<path d="M142.607 94.4422C151.777 91.0726 151.567 92.0724 142.906 95.255C132.652 99.0229 93.9483 122.632 93.9483 122.632C76.3803 133.267 75.0661 131.625 92.0942 121.277L93.1438 120.64C93.3415 120.52 112.728 108.285 126.581 101.738C128.14 101.002 141.563 94.8259 142.607 94.4422Z" fill="white"/>
<path fill-rule="evenodd" clip-rule="evenodd" d="M158.44 77.6669C155.599 77.5217 153.381 79.7297 153.358 82.6187C153.338 85.0392 154.727 87.0945 156.717 87.5047C157.241 87.6128 158.753 87.6128 160.064 86.877L160.173 86.8172C161.827 85.8808 162.951 84.0995 163.102 82.6341C163.368 80.0361 161.281 77.8122 158.44 77.6669ZM153.976 82.6236C153.976 82.605 153.977 82.5864 153.977 82.5678C153.995 82.5621 154.012 82.5547 154.029 82.5456C156.257 81.3455 157.632 80.431 158.181 79.7707C158.543 79.3347 158.72 78.8429 158.706 78.3086C159.08 78.35 159.437 78.4321 159.771 78.5496C159.769 78.5656 159.768 78.582 159.769 78.5986C159.796 79.3676 159.591 79.9823 159.155 80.4609C158.654 81.0109 158.048 81.5343 157.358 82.0279C156.62 82.5557 155.828 83.0216 155.037 83.4206C154.852 83.5136 154.676 83.5985 154.511 83.675L154.272 83.7834C154.238 83.7986 154.206 83.8126 154.177 83.8252L154.106 83.8552C154.018 83.4652 153.973 83.0519 153.976 82.6236ZM154.279 84.453C154.475 84.9961 154.759 85.4775 155.11 85.8695L155.295 85.7632C158.202 84.0801 160.007 82.7579 160.69 81.8251C161.38 80.8821 161.627 80.158 161.472 79.6656C161.469 79.654 161.466 79.6423 161.463 79.6307C161.159 79.3112 160.797 79.0366 160.389 78.8199C160.371 79.6373 160.113 80.3277 159.612 80.8773C159.08 81.4621 158.441 82.0135 157.718 82.5309C156.952 83.0788 156.133 83.5606 155.315 83.973C155.076 84.0932 154.851 84.2004 154.644 84.2942L154.403 84.401L154.279 84.453ZM156.595 86.8367C156.229 86.7275 155.889 86.5483 155.583 86.3111C158.576 84.5801 160.438 83.2162 161.189 82.1906C161.655 81.5543 161.953 80.9822 162.074 80.4716C162.224 80.7527 162.338 81.0524 162.411 81.3655C162.396 81.3974 162.385 81.4326 162.381 81.47C162.306 82.193 161.933 82.9106 161.252 83.6253C160.598 84.3112 159.187 85.3009 157.03 86.5803L156.595 86.8367ZM157.64 86.9367C158.304 86.8946 159.116 86.6999 159.772 86.332C160.992 85.6776 161.972 84.4452 162.342 83.2576C162.163 83.5258 161.949 83.7907 161.7 84.0521C161.028 84.7564 159.678 85.7139 157.64 86.9367ZM154.156 81.7723L154.046 81.8322C154.397 79.7885 156.03 78.3221 158.086 78.2797C158.108 78.6812 157.983 79.0415 157.705 79.3752C157.257 79.9147 156.067 80.7223 154.156 81.7723Z" fill="#00160A"/>
<path fill-rule="evenodd" clip-rule="evenodd" d="M180.766 71.7409C180.824 71.7476 180.864 71.7997 180.858 71.857C180.857 71.9414 180.803 71.9871 180.73 72.0167C180.664 72.0431 180.559 72.033 180.498 72.0413C179.828 72.093 179.302 71.6002 179.07 70.965C178.848 70.3548 178.907 69.6252 179.311 69.1752C179.357 69.1222 179.438 69.1169 179.491 69.1634C179.544 69.2098 179.845 69.2906 179.799 69.3437C179.466 69.7324 179.24 69.9682 179.555 70.8908C179.869 71.8135 180.723 71.736 180.766 71.7409Z" fill="#E7EAEE"/>
<path fill-rule="evenodd" clip-rule="evenodd" d="M74.1305 78.3467C73.9545 78.2259 73.7138 78.2706 73.593 78.4466C73.4721 78.6226 73.5168 78.8632 73.6929 78.9841C73.8862 79.1169 74.0571 79.2394 74.2079 79.3533C74.0454 79.4825 73.8832 79.6306 73.7146 79.7991L73.3728 80.1464C73.2225 80.298 73.2235 80.5427 73.3752 80.693C73.5268 80.8433 73.7716 80.8423 73.9219 80.6906L74.332 80.276C74.499 80.1135 74.6554 79.9775 74.8127 79.8645C75.1623 80.211 75.2687 80.4651 75.2744 80.7177L75.2745 80.7825L75.2764 80.822C75.2962 81.0169 75.4609 81.169 75.661 81.169C75.8745 81.169 76.0476 80.996 76.0476 80.7825L76.0475 80.7065C76.0403 80.3127 75.9013 79.9381 75.5272 79.5101C75.7743 79.4365 76.0528 79.3953 76.3905 79.3776C76.6037 79.3665 76.7675 79.1846 76.7564 78.9714C76.7453 78.7582 76.5634 78.5944 76.3502 78.6055C75.7639 78.6362 75.3083 78.7339 74.9023 78.9196C74.7329 78.781 74.5409 78.6356 74.324 78.4817L74.1305 78.3467Z" fill="#00160A"/>
<path fill-rule="evenodd" clip-rule="evenodd" d="M132.054 163.053L132.322 163.054C133.821 163.068 134.992 163.203 137.198 163.557C137.451 163.598 137.623 163.836 137.582 164.089C137.542 164.342 137.304 164.514 137.051 164.473L136.328 164.359C134.503 164.079 133.451 163.98 132.054 163.98C127.206 163.98 124.111 167.015 124.635 171.67C124.664 171.924 124.48 172.154 124.226 172.182C123.971 172.211 123.742 172.028 123.713 171.773C123.124 166.539 126.679 163.053 132.054 163.053ZM135.809 164.926L135.763 164.886C135.72 164.848 135.652 164.854 135.616 164.898C135.577 164.942 135.583 165.008 135.627 165.045L135.674 165.085C135.717 165.122 135.783 165.117 135.821 165.073C135.858 165.03 135.854 164.963 135.809 164.926ZM127.402 165.896C127.236 165.762 126.993 165.789 126.859 165.955C126.319 166.627 125.925 167.282 125.68 167.921C125.441 168.543 125.36 169.587 125.422 171.081L125.437 171.396C125.448 171.609 125.63 171.773 125.843 171.762C126.056 171.75 126.22 171.569 126.209 171.355C126.127 169.795 126.196 168.732 126.402 168.198C126.616 167.639 126.969 167.052 127.462 166.439C127.595 166.273 127.569 166.03 127.402 165.896ZM131.621 164.617C131.811 164.519 132.044 164.593 132.142 164.782C132.241 164.972 132.166 165.205 131.977 165.303C131.192 165.71 130.592 166.392 130.174 167.364C129.726 168.407 129.359 169.338 129.073 170.157C129.003 170.358 128.782 170.465 128.581 170.394C128.379 170.324 128.273 170.103 128.343 169.902C128.635 169.065 129.009 168.118 129.464 167.059C129.95 165.929 130.67 165.11 131.621 164.617ZM133.869 164.597C133.728 164.436 133.484 164.42 133.323 164.561C132.678 165.126 132.182 165.64 131.835 166.106C131.491 166.569 131.087 167.262 130.62 168.188C130.524 168.379 130.601 168.611 130.792 168.707C130.982 168.803 131.215 168.727 131.311 168.536C131.759 167.646 132.142 166.989 132.455 166.568C132.766 166.151 133.225 165.674 133.833 165.142C133.993 165.001 134.009 164.757 133.869 164.597ZM132.457 168.962C132.297 169.103 132.052 169.087 131.912 168.926C131.771 168.766 131.787 168.521 131.948 168.381C132.555 167.849 133.014 167.372 133.325 166.955C133.638 166.534 134.021 165.877 134.47 164.987C134.566 164.796 134.798 164.719 134.989 164.816C135.179 164.912 135.256 165.144 135.16 165.335C134.693 166.261 134.29 166.953 133.945 167.416C133.598 167.883 133.103 168.397 132.457 168.962ZM129.53 164.932C129.355 164.811 129.114 164.855 128.993 165.031C128.128 166.282 127.577 167.217 127.333 167.852C127.088 168.49 126.919 169.349 126.82 170.435C126.801 170.648 126.958 170.836 127.171 170.855C127.383 170.874 127.571 170.718 127.59 170.505C127.683 169.484 127.839 168.691 128.054 168.13C128.255 167.607 128.723 166.8 129.455 165.723L129.629 165.47C129.75 165.294 129.706 165.054 129.53 164.932Z" fill="#00160A"/>
<path fill-rule="evenodd" clip-rule="evenodd" d="M122.192 162.652L122.459 163.244L123.066 163.419C123.099 163.428 123.118 163.462 123.108 163.495C123.105 163.505 123.1 163.515 123.093 163.522L122.631 163.981L122.657 164.642C122.658 164.676 122.632 164.705 122.598 164.706C122.586 164.707 122.575 164.704 122.565 164.698L122.042 164.401C122.026 164.392 122.006 164.39 121.989 164.397L121.43 164.619C121.398 164.632 121.362 164.616 121.35 164.584C121.346 164.574 121.344 164.562 121.347 164.551L121.464 163.9L121.071 163.381C121.051 163.353 121.056 163.315 121.083 163.294C121.092 163.288 121.101 163.284 121.112 163.282L121.737 163.194L122.084 162.645C122.102 162.616 122.14 162.607 122.169 162.626C122.179 162.632 122.187 162.641 122.192 162.652Z" fill="#00160A"/>
<path fill-rule="evenodd" clip-rule="evenodd" d="M143.703 79.7767C143.845 79.9029 144.022 80.1304 144.179 80.3767L144.381 80.287L144.62 80.1848C144.667 80.1629 144.698 80.1457 144.708 80.1318C144.735 80.0806 144.799 80.0611 144.851 80.0883C144.901 80.1154 144.921 80.1789 144.894 80.23C144.875 80.2785 144.741 80.4308 144.492 80.5798C144.447 80.6068 144.397 80.6319 144.344 80.6564C144.435 80.8281 144.508 80.9939 144.541 81.1269C144.593 81.323 144.552 81.462 144.484 81.5108C144.418 81.5591 144.253 81.5681 144.001 81.3589C143.955 81.3236 143.947 81.2577 143.983 81.2118C144.018 81.1662 144.083 81.1577 144.13 81.193C144.178 81.2284 144.226 81.2484 144.265 81.2629L144.246 81.1878C144.239 81.161 144.229 81.133 144.217 81.1057C144.171 81.007 144.114 80.8942 144.05 80.7784C143.853 80.8528 143.628 80.9203 143.386 80.9528C143.268 80.9687 143.148 80.9718 143.023 80.9707C142.951 80.9755 142.889 80.9209 142.884 80.8489C142.879 80.7771 142.934 80.7148 143.006 80.7101C143.297 80.682 143.566 80.6084 143.804 80.5256L143.882 80.4976C143.753 80.2966 143.616 80.114 143.498 80.0109C143.434 79.9543 143.427 79.8558 143.483 79.7912C143.541 79.7264 143.639 79.7199 143.703 79.7767Z" fill="#00160A"/>
<path fill-rule="evenodd" clip-rule="evenodd" d="M58.5864 132.111C58.1821 132.137 57.541 132.24 57.0169 132.448C56.5685 132.626 56.5685 137.466 58.1012 137.852C59.6251 138.36 61.2913 137.687 61.0924 135.097C61.0888 135.043 61.0449 134.896 60.9947 134.727C60.921 134.48 60.8337 134.186 60.8389 134.071C60.8596 133.665 60.7528 133.322 60.4707 133.107C60.1669 132.462 59.5715 132.047 58.5864 132.111ZM58.367 136.674C57.6169 136.113 57.6432 133.497 58.4993 133.323C59.0321 133.732 59.5184 134.323 59.6824 135.463C59.4989 136.09 59.1113 136.453 58.7725 136.771C58.7362 136.805 58.7005 136.838 58.6657 136.871C58.569 136.816 58.4693 136.749 58.367 136.674Z" fill="white"/>
<path fill-rule="evenodd" clip-rule="evenodd" d="M57.4564 135.149C57.3884 134.742 57.4348 134.286 57.6393 133.8C57.7321 133.58 57.976 133.4 58.2812 133.28C58.6379 133.139 59.0742 133.069 59.3494 133.051C60.0198 133.008 60.4249 133.289 60.6315 133.724C60.8233 133.87 60.896 134.102 60.8818 134.377C60.8757 134.507 61.048 134.98 61.054 135.07C61.1886 136.822 60.0545 137.278 59.0176 136.934C58.6237 137.135 58.2437 137.168 57.9577 136.955C57.7012 136.765 57.5043 136.365 57.4592 135.659C57.4472 135.477 57.4462 135.307 57.4564 135.149ZM59.2956 133.995C58.7006 134.112 58.6757 135.829 59.1953 136.196C59.2661 136.245 59.3352 136.289 59.4022 136.325C59.6533 136.098 59.8406 135.915 59.9468 135.541C60.0531 135.166 59.6645 134.263 59.2956 133.995Z" fill="#FFB61D"/>
<path fill-rule="evenodd" clip-rule="evenodd" d="M98.0562 178.042C97.8802 177.921 97.6396 177.966 97.5188 178.142C97.3979 178.318 97.4426 178.559 97.6186 178.679C97.812 178.812 97.9829 178.935 98.1336 179.049C97.9712 179.178 97.809 179.326 97.6404 179.494L97.2985 179.842C97.1482 179.993 97.1493 180.238 97.301 180.388C97.4526 180.539 97.6973 180.538 97.8476 180.386L98.2578 179.971C98.4247 179.809 98.5812 179.673 98.7385 179.56C99.0881 179.906 99.1945 180.16 99.2002 180.413L99.2002 180.478L99.2022 180.517C99.222 180.712 99.3866 180.864 99.5868 180.864C99.8003 180.864 99.9734 180.691 99.9734 180.478L99.9733 180.402C99.9661 180.008 99.8271 179.633 99.453 179.205C99.7001 179.132 99.9786 179.091 100.316 179.073C100.53 179.062 100.693 178.88 100.682 178.667C100.671 178.454 100.489 178.29 100.276 178.301C99.6897 178.331 99.234 178.429 98.8281 178.615C98.6587 178.476 98.4667 178.331 98.2498 178.177L98.0562 178.042Z" fill="#00160A"/>
<path fill-rule="evenodd" clip-rule="evenodd" d="M98.0562 178.042C97.8802 177.921 97.6396 177.966 97.5188 178.142C97.3979 178.318 97.4426 178.559 97.6186 178.679C97.812 178.812 97.9829 178.935 98.1336 179.049C97.9712 179.178 97.809 179.326 97.6404 179.494L97.2985 179.842C97.1482 179.993 97.1493 180.238 97.301 180.388C97.4526 180.539 97.6973 180.538 97.8476 180.386L98.2578 179.971C98.4247 179.809 98.5812 179.673 98.7385 179.56C99.0881 179.906 99.1945 180.16 99.2002 180.413L99.2002 180.478L99.2022 180.517C99.222 180.712 99.3866 180.864 99.5868 180.864C99.8003 180.864 99.9734 180.691 99.9734 180.478L99.9733 180.402C99.9661 180.008 99.8271 179.633 99.453 179.205C99.7001 179.132 99.9786 179.091 100.316 179.073C100.53 179.062 100.693 178.88 100.682 178.667C100.671 178.454 100.489 178.29 100.276 178.301C99.6897 178.331 99.234 178.429 98.8281 178.615C98.6587 178.476 98.4667 178.331 98.2498 178.177L98.0562 178.042Z" fill="#00160A"/>
<path fill-rule="evenodd" clip-rule="evenodd" d="M111.268 167.452L111.534 168.043L112.141 168.218C112.174 168.227 112.193 168.261 112.184 168.294C112.181 168.304 112.175 168.314 112.168 168.321L111.706 168.78L111.732 169.441C111.734 169.475 111.707 169.504 111.673 169.506C111.661 169.506 111.65 169.503 111.64 169.498L111.117 169.2C111.101 169.191 111.081 169.189 111.064 169.196L110.505 169.418C110.474 169.431 110.438 169.415 110.425 169.384C110.421 169.373 110.42 169.361 110.422 169.35L110.539 168.699L110.146 168.18C110.126 168.152 110.131 168.114 110.158 168.093C110.167 168.087 110.177 168.083 110.187 168.081L110.813 167.993L111.159 167.444C111.177 167.415 111.215 167.406 111.244 167.425C111.254 167.431 111.263 167.44 111.268 167.452Z" fill="#00160A"/>
<path fill-rule="evenodd" clip-rule="evenodd" d="M77.7546 163.384L78.2074 163.849L78.8376 163.805C78.8717 163.803 78.9012 163.829 78.9036 163.863C78.9043 163.873 78.9024 163.884 78.8979 163.893L78.6215 164.483L78.8718 165.095C78.8847 165.127 78.8696 165.163 78.838 165.176C78.8273 165.18 78.8156 165.181 78.8042 165.179L78.2116 165.078C78.1931 165.075 78.1742 165.081 78.1601 165.093L77.7111 165.493C77.6856 165.515 77.6465 165.513 77.6237 165.488C77.6161 165.479 77.611 165.468 77.609 165.457L77.4969 164.805L76.9501 164.452C76.9214 164.433 76.9132 164.395 76.9317 164.366C76.9374 164.357 76.9453 164.35 76.9546 164.345L77.5123 164.049L77.6498 163.414C77.6571 163.381 77.69 163.36 77.7234 163.367C77.7353 163.369 77.7461 163.375 77.7546 163.384Z" fill="#00160A"/>
<path fill-rule="evenodd" clip-rule="evenodd" d="M70.6835 120.992L70.9499 121.584L71.5572 121.759C71.59 121.768 71.609 121.802 71.5996 121.835C71.5966 121.845 71.5912 121.854 71.5837 121.862L71.1224 122.321L71.1482 122.982C71.1496 123.016 71.123 123.045 71.0888 123.046C71.0773 123.047 71.0658 123.044 71.0558 123.038L70.5335 122.741C70.5172 122.732 70.4975 122.73 70.48 122.737L69.9214 122.959C69.8897 122.972 69.8537 122.956 69.8411 122.924C69.8368 122.914 69.8357 122.902 69.8377 122.89L69.9553 122.24L69.5623 121.72C69.5417 121.693 69.5471 121.654 69.5743 121.634C69.5827 121.627 69.5926 121.623 69.603 121.622L70.2286 121.534L70.5748 120.985C70.593 120.956 70.6312 120.947 70.6601 120.965C70.6704 120.972 70.6785 120.981 70.6835 120.992Z" fill="#00160A"/>
<path fill-rule="evenodd" clip-rule="evenodd" d="M70.6222 121.582L70.7353 121.833L70.9933 121.907C71.0072 121.911 71.0153 121.926 71.0113 121.94C71.0101 121.944 71.0077 121.948 71.0046 121.951L70.8086 122.146L70.8196 122.427C70.8201 122.442 70.8088 122.454 70.7943 122.454C70.7894 122.455 70.7846 122.453 70.7803 122.451L70.5585 122.325C70.5515 122.321 70.5432 122.32 70.5358 122.323L70.2985 122.417C70.285 122.423 70.2697 122.416 70.2644 122.403C70.2625 122.398 70.262 122.393 70.2629 122.388L70.3129 122.112L70.146 121.891C70.1372 121.88 70.1395 121.863 70.151 121.854C70.1546 121.852 70.1588 121.85 70.1632 121.849L70.429 121.812L70.576 121.579C70.5837 121.566 70.6 121.563 70.6122 121.57C70.6166 121.573 70.6201 121.577 70.6222 121.582Z" fill="#E7EAEE"/>
<path fill-rule="evenodd" clip-rule="evenodd" d="M39.0165 146.964L39.2829 147.556L39.8902 147.731C39.923 147.74 39.942 147.774 39.9326 147.807C39.9297 147.817 39.9242 147.827 39.9167 147.834L39.4554 148.293L39.4812 148.954C39.4826 148.988 39.456 149.017 39.4218 149.019C39.4103 149.019 39.3989 149.016 39.3888 149.01L38.8665 148.713C38.8502 148.704 38.8305 148.702 38.8131 148.709L38.2544 148.931C38.2227 148.944 38.1867 148.928 38.1741 148.896C38.1698 148.886 38.1687 148.874 38.1707 148.863L38.2883 148.212L37.8954 147.693C37.8747 147.665 37.8801 147.627 37.9073 147.606C37.9157 147.6 37.9256 147.596 37.936 147.594L38.5616 147.506L38.9078 146.957C38.926 146.928 38.9642 146.919 38.9931 146.938C39.0034 146.944 39.0116 146.953 39.0165 146.964Z" fill="#00160A"/>
<path fill-rule="evenodd" clip-rule="evenodd" d="M65.7813 93.8094L65.9748 93.9444C66.192 94.0984 67.0027 94.8624 67.1722 95.0011C67.5775 94.8151 68.0332 94.7173 68.6196 94.6867C68.8328 94.6755 69.0146 94.8394 69.0258 95.0526C69.0369 95.2658 68.8731 95.4476 68.6599 95.4588C68.3221 95.4764 68.0435 95.5177 67.7963 95.5913C68.1708 96.0195 68.3097 96.3939 68.3169 96.7876L68.317 96.8636C68.317 97.0771 68.1439 97.2502 67.9304 97.2502C67.7303 97.2502 67.5656 97.0981 67.5458 96.9031L67.5438 96.8636L67.5438 96.7988C67.5381 96.5463 67.4317 96.2922 67.0822 95.9457C66.9248 96.0586 66.7683 96.1946 66.6014 96.3572L66.1912 96.7718C66.0409 96.9234 65.7962 96.9245 65.6446 96.7742C65.4929 96.6239 65.4919 96.3791 65.6421 96.2275L65.984 95.8803C66.1526 95.7118 66.3148 95.5637 66.4772 95.4345C66.192 94.7834 65.123 94.0853 65.2439 93.9092C65.3647 93.7332 65.6053 93.6885 65.7813 93.8094Z" fill="#00160A"/>
<path fill-rule="evenodd" clip-rule="evenodd" d="M140.365 138.392L140.892 138.771L141.505 138.619C141.538 138.61 141.572 138.631 141.58 138.664C141.583 138.674 141.583 138.685 141.58 138.695L141.41 139.323L141.763 139.883C141.781 139.912 141.772 139.95 141.743 139.968C141.734 139.974 141.722 139.977 141.711 139.978L141.11 139.981C141.091 139.981 141.073 139.99 141.062 140.005L140.689 140.476C140.668 140.503 140.629 140.507 140.602 140.486C140.593 140.479 140.586 140.469 140.582 140.459L140.358 139.836L139.759 139.583C139.727 139.57 139.712 139.533 139.726 139.502C139.73 139.492 139.736 139.484 139.744 139.477L140.242 139.088L140.267 138.44C140.269 138.405 140.298 138.379 140.332 138.38C140.344 138.381 140.356 138.385 140.365 138.392Z" fill="#00160A"/>
<path fill-rule="evenodd" clip-rule="evenodd" d="M146.415 114.164L146.575 114.793L147.142 115.07C147.173 115.085 147.186 115.122 147.171 115.153C147.166 115.163 147.159 115.171 147.151 115.177L146.617 115.549L146.527 116.204C146.523 116.238 146.491 116.262 146.458 116.257C146.446 116.256 146.435 116.251 146.426 116.244L145.964 115.86C145.949 115.848 145.93 115.843 145.912 115.847L145.323 115.969C145.29 115.975 145.257 115.954 145.25 115.92C145.248 115.909 145.249 115.897 145.253 115.887L145.481 115.266L145.185 114.687C145.169 114.656 145.181 114.619 145.211 114.603C145.221 114.598 145.231 114.596 145.242 114.597L145.873 114.618L146.309 114.138C146.332 114.112 146.371 114.111 146.397 114.133C146.406 114.142 146.412 114.152 146.415 114.164Z" fill="#00160A"/>
<path fill-rule="evenodd" clip-rule="evenodd" d="M132.638 88.8401L132.797 89.4693L133.365 89.7464C133.396 89.7614 133.409 89.7984 133.394 89.8291C133.389 89.8386 133.382 89.8467 133.373 89.8528L132.839 90.225L132.75 90.8804C132.745 90.9142 132.714 90.9379 132.68 90.9333C132.669 90.9318 132.658 90.927 132.649 90.9197L132.186 90.536C132.172 90.524 132.153 90.5193 132.134 90.523L131.546 90.6446C131.512 90.6515 131.48 90.6299 131.473 90.5965C131.47 90.5852 131.471 90.5734 131.475 90.5626L131.704 89.9419L131.407 89.3625C131.392 89.3321 131.404 89.2949 131.434 89.2793C131.443 89.2745 131.454 89.2722 131.464 89.2725L132.096 89.2944L132.532 88.8137C132.555 88.7884 132.594 88.7866 132.619 88.8095C132.628 88.8177 132.635 88.8283 132.638 88.8401Z" fill="#00160A"/>
<path fill-rule="evenodd" clip-rule="evenodd" d="M173.34 95.0055L173.575 94.9845C173.84 94.9629 174.081 94.9509 174.3 94.9481C174.491 94.545 174.777 94.1773 175.206 93.7769C175.363 93.6313 175.607 93.6399 175.753 93.7961C175.898 93.9522 175.89 94.1968 175.734 94.3424C175.486 94.5731 175.299 94.7837 175.157 94.9991C175.719 95.0864 176.066 95.2839 176.325 95.5808L176.374 95.639C176.511 95.8026 176.49 96.0464 176.326 96.1836C176.173 96.3123 175.949 96.3016 175.809 96.165L175.782 96.136L175.74 96.0864C175.573 95.8966 175.328 95.7703 174.838 95.7296C174.79 95.9173 174.758 96.122 174.734 96.3538L174.686 96.9351C174.669 97.1478 174.482 97.306 174.269 97.2883C174.056 97.2707 173.898 97.0839 173.916 96.8711L173.955 96.3854C173.975 96.1479 174.005 95.9302 174.046 95.7268C173.857 95.7364 173.648 95.7524 173.414 95.775C173.202 95.7956 173.013 95.64 172.992 95.4275C172.971 95.215 173.127 95.026 173.34 95.0055Z" fill="#00160A"/>
<path fill-rule="evenodd" clip-rule="evenodd" d="M142.125 121.69C142.055 121.867 141.902 122.112 141.724 122.343L141.877 122.502L142.055 122.691L142.094 122.729C142.112 122.744 142.125 122.754 142.135 122.756C142.192 122.765 142.232 122.818 142.225 122.875C142.216 122.932 142.164 122.973 142.106 122.964C142.054 122.963 141.865 122.89 141.64 122.707C141.599 122.674 141.559 122.635 141.517 122.593C141.387 122.738 141.256 122.863 141.143 122.94C140.976 123.055 140.832 123.064 140.763 123.018C140.695 122.972 140.63 122.82 140.74 122.512C140.757 122.456 140.817 122.427 140.872 122.444C140.927 122.461 140.957 122.52 140.94 122.576C140.923 122.633 140.921 122.685 140.921 122.727L140.985 122.683C141.007 122.667 141.03 122.649 141.052 122.628C141.129 122.551 141.215 122.459 141.302 122.359C141.165 122.199 141.025 122.012 140.911 121.795C140.856 121.69 140.812 121.578 140.77 121.46C140.741 121.394 140.771 121.317 140.837 121.288C140.903 121.259 140.98 121.289 141.009 121.355C141.135 121.619 141.297 121.847 141.456 122.042L141.509 122.105C141.654 121.916 141.778 121.724 141.835 121.578C141.866 121.498 141.956 121.458 142.036 121.489C142.117 121.521 142.156 121.611 142.125 121.69Z" fill="#E7EAEE"/>
<path fill-rule="evenodd" clip-rule="evenodd" d="M138.35 42.9066C138.585 42.8656 138.81 43.0233 138.851 43.2589C138.892 43.4944 138.734 43.7187 138.499 43.7597C137.378 43.9549 136.03 44.6246 134.865 45.7032C133.352 47.1038 132.236 49.0807 131.686 51.6611C131.242 53.7401 131.65 56.4774 132.81 58.7611C134.129 61.3592 136.251 63.1257 138.973 63.623C141.768 64.1334 144.132 63.8164 146.773 62.8776L147.016 62.7893C147.093 62.7601 147.231 62.707 147.404 62.6404L147.404 62.6402C148.04 62.3948 149.151 61.9661 149.47 61.8696C150.324 61.6114 150.907 61.633 151.329 62.083C151.493 62.2574 151.484 62.5314 151.309 62.695C151.146 62.8484 150.895 62.8504 150.729 62.7063L150.698 62.6756C150.573 62.5428 150.315 62.5274 149.797 62.6761L149.721 62.6984C149.44 62.7835 148.411 63.1803 147.769 63.4277L147.769 63.4279L147.767 63.4284C147.52 63.5239 147.33 63.5971 147.264 63.6212C144.412 64.6624 141.852 65.029 138.818 64.4748C135.811 63.9256 133.473 61.979 132.038 59.1532C130.79 56.6974 130.352 53.7589 130.839 51.4803C131.427 48.7263 132.632 46.5904 134.277 45.0679C135.564 43.876 137.065 43.1305 138.35 42.9066ZM141.278 44.9983C141.513 44.9523 141.74 45.1053 141.786 45.3399C141.832 45.5746 141.679 45.8021 141.444 45.848C137.935 46.5353 135.113 49.2155 134.295 52.7607C134.018 53.9606 134.102 54.9361 134.374 55.3084L134.41 55.355L134.412 55.3615L134.417 55.3576C134.515 55.2697 134.629 55.0453 134.717 54.6975L134.735 54.621C135.577 50.9749 138.357 48.1525 141.908 47.2047C142.139 47.143 142.376 47.2803 142.438 47.5113C142.499 47.7423 142.362 47.9796 142.131 48.0413C138.932 48.8952 136.419 51.4137 135.612 54.6775L135.579 54.8158C135.282 56.1018 134.43 56.7156 133.739 55.9016C133.234 55.3062 133.11 54.0429 133.451 52.5659C134.347 48.6849 137.437 45.7506 141.278 44.9983ZM146.485 49.7504C146.468 49.5119 146.261 49.3324 146.023 49.3494C141.809 49.65 138.113 52.387 136.643 56.4266C136.085 57.9594 136.052 59.3226 136.509 60.0178C137.121 60.9502 138.085 60.4213 138.566 59.101L138.616 58.9655C139.916 55.5468 142.963 53.1591 146.53 52.6612C146.767 52.6282 146.932 52.4094 146.899 52.1726C146.866 51.9357 146.647 51.7706 146.41 51.8036C142.482 52.3519 139.133 55.0097 137.752 58.8048L137.721 58.8859C137.568 59.2809 137.4 59.519 137.272 59.5889L137.267 59.5927C137.264 59.5948 137.263 59.5962 137.262 59.5961C137.262 59.596 137.262 59.5957 137.261 59.595C137.261 59.5943 137.26 59.5933 137.26 59.5919C137.257 59.5855 137.251 59.5709 137.232 59.5422L137.209 59.5046C136.958 59.0591 136.996 57.9873 137.457 56.7227C138.809 53.007 142.208 50.4897 146.084 50.2131C146.323 50.1961 146.502 49.989 146.485 49.7504ZM148.371 53.9594C148.609 53.9424 148.817 54.1219 148.834 54.3604C148.851 54.5989 148.671 54.8061 148.432 54.8231C145.715 55.017 143.332 56.7819 142.383 59.3871C142.102 60.1594 142.05 60.8196 142.151 61.154L142.163 61.1913L142.182 61.1637C142.231 61.0904 142.285 60.9851 142.338 60.8485L142.361 60.7881C143.363 58.0363 145.791 56.1092 148.639 55.7116C148.876 55.6785 149.095 55.8437 149.128 56.0805C149.161 56.3174 148.996 56.5361 148.759 56.5692C146.267 56.917 144.138 58.5798 143.22 60.9625L143.175 61.0842C142.803 62.1047 142 62.5455 141.487 61.7641C141.135 61.2287 141.16 60.2179 141.57 59.091C142.636 56.1619 145.315 54.1774 148.371 53.9594ZM150.653 57.4478C150.636 57.2092 150.429 57.0297 150.19 57.0467C148.144 57.1927 146.349 58.5218 145.635 60.4834C145.354 61.2567 145.337 61.9606 145.597 62.3569C146.024 63.0066 146.687 62.6425 146.964 61.8833L147.001 61.7836C147.583 60.2982 148.916 59.2625 150.474 59.045C150.711 59.0119 150.876 58.7931 150.843 58.5563C150.81 58.3195 150.591 58.1543 150.354 58.1874L150.245 58.2039C148.567 58.4741 147.12 59.5389 146.369 61.0713L146.343 61.1258L146.359 61.0637C146.383 60.9733 146.413 60.8781 146.449 60.7795C147.045 59.1418 148.543 58.0323 150.252 57.9104C150.49 57.8934 150.67 57.6863 150.653 57.4478Z" fill="#00160A"/>
<path fill-rule="evenodd" clip-rule="evenodd" d="M148.371 53.9592C148.609 53.9422 148.816 54.1217 148.833 54.3602C148.85 54.5987 148.671 54.8059 148.432 54.8229C145.715 55.0168 143.331 56.7817 142.383 59.3869C142.102 60.1592 142.05 60.8195 142.151 61.1538L142.163 61.1912L142.182 61.1635C142.23 61.0902 142.285 60.9849 142.338 60.8483L142.361 60.7879C143.363 58.0361 145.791 56.109 148.639 55.7114C148.876 55.6784 149.095 55.8435 149.128 56.0804C149.161 56.3172 148.996 56.5359 148.759 56.569C146.267 56.9168 144.138 58.5797 143.22 60.9623L143.175 61.084C142.803 62.1045 142 62.5453 141.487 61.764C141.135 61.2285 141.159 60.2177 141.57 59.0908C142.636 56.1617 145.315 54.1772 148.371 53.9592Z" fill="#00160A"/>
<path d="M121.407 110.329C130.484 106.083 138.073 103.841 142.798 103.429C144.245 103.303 144.901 104.101 144.534 105.398C144.262 106.362 143.434 107.684 142.164 109.249C139.95 111.979 137.031 114.314 134.124 116.487C138.774 112.194 139.961 110.399 141.395 108.63L141.62 108.349C142.684 107.005 143.371 105.881 143.583 105.131L143.613 105.018C143.745 104.476 143.592 104.348 142.884 104.41C138.266 104.813 130.706 107.06 121.662 111.3C112.604 115.546 112.345 114.568 121.407 110.329Z" fill="white"/>
<path d="M79.8944 96.5945L79.9608 96.7524C80.4206 97.8428 80.8984 98.9225 81.4408 100.1L81.6517 100.557C81.5825 100.603 81.4916 100.653 81.3917 100.696C81.2481 100.759 81.1024 100.803 80.9928 100.818L80.9579 100.821L80.9052 100.758C80.4954 100.254 80.0197 99.3962 79.6759 98.5437C79.4929 98.0896 79.3624 97.6731 79.3037 97.3531C79.2797 97.2227 79.2686 97.1132 79.2696 97.0301L79.2721 96.9753C79.273 96.962 79.273 96.9551 79.2697 96.9541L79.2827 96.9454C79.3558 96.8949 79.5429 96.7855 79.8206 96.6345L79.8944 96.5945Z" fill="white"/>
<path fill-rule="evenodd" clip-rule="evenodd" d="M91.3683 92.6448C91.6524 92.2971 92.0208 92.3489 92.4874 92.6319L92.6073 92.7076L92.9427 92.9298C93.0365 92.99 93.0771 93.0108 93.1319 93.0326C93.2588 93.0831 93.3208 93.227 93.2702 93.3539C93.2197 93.4809 93.0758 93.5428 92.9488 93.4923L92.9036 93.4737C92.8178 93.4369 92.7531 93.3987 92.5792 93.2834L92.3386 93.1231C92.2989 93.0972 92.2646 93.0755 92.2308 93.055C91.9517 92.8857 91.825 92.8679 91.7515 92.9579C91.7051 93.0146 91.7166 93.1355 91.8085 93.3833L91.9095 93.6434C92.1102 94.176 92.1113 94.4142 91.7539 94.6175C91.4462 94.7925 91.2884 94.7107 90.8464 94.2777L90.7392 94.1715C90.4562 93.8888 90.3078 93.7905 90.2123 93.8107C90.1805 93.8174 90.1435 93.8399 90.0983 93.8881C90.0453 93.9446 90.0303 94.1254 90.0628 94.446L90.1126 94.8648C90.1708 95.3767 90.1473 95.5093 89.936 95.6507C89.645 95.8455 89.2578 95.6254 88.5401 94.9808C88.4384 94.8895 88.43 94.7331 88.5213 94.6315C88.6126 94.5298 88.7691 94.5214 88.8707 94.6127C89.1775 94.8882 89.4092 95.0677 89.571 95.1597L89.6073 95.1794L89.6376 95.1945L89.6383 95.1635L89.6363 95.0894C89.6331 95.0287 89.6256 94.9553 89.6105 94.8306L89.5789 94.5736C89.5188 94.0525 89.5376 93.7626 89.7374 93.5496C89.8484 93.4312 89.973 93.3555 90.1099 93.3266C90.4277 93.2594 90.6535 93.3951 91.0284 93.7616L91.2176 93.9478C91.4217 94.144 91.4973 94.1941 91.5093 94.1874C91.5556 94.161 91.5486 94.0791 91.4233 93.7572L91.3683 93.6178C91.1936 93.1686 91.1602 92.8995 91.3683 92.6448Z" fill="#00160A"/>
<path fill-rule="evenodd" clip-rule="evenodd" d="M118.378 52.3758L118.143 52.3968C117.931 52.4174 117.775 52.6063 117.796 52.8188C117.808 52.9473 117.882 53.055 117.986 53.1155L117.945 53.1445C117.77 53.2677 117.729 53.509 117.852 53.6833C117.975 53.8577 118.217 53.8991 118.391 53.7759L118.788 53.4945C118.777 53.5855 118.767 53.6795 118.758 53.7767L118.719 54.2625C118.702 54.4752 118.86 54.662 119.073 54.6797C119.286 54.6974 119.472 54.5392 119.49 54.3264L119.538 53.7452C119.55 53.6208 119.565 53.5042 119.584 53.3938C119.72 53.6514 119.747 53.8497 119.718 54.0374L119.707 54.1012L119.702 54.1405C119.688 54.3359 119.824 54.5143 120.021 54.549C120.231 54.5861 120.431 54.4457 120.468 54.2354L120.482 54.1606C120.523 53.8997 120.504 53.6371 120.398 53.3455C120.454 53.3853 120.501 53.4294 120.544 53.4777L120.585 53.5274L120.612 53.5564C120.753 53.693 120.976 53.7037 121.13 53.575C121.293 53.4378 121.315 53.1939 121.177 53.0304L121.129 52.9722C121.111 52.9523 121.093 52.9328 121.075 52.9137C121.277 52.9255 121.456 52.7785 121.481 52.575C121.507 52.3631 121.356 52.1702 121.144 52.1441C120.78 52.0993 120.461 52.0892 120.168 52.1156C120.273 51.9918 120.395 51.8661 120.537 51.7338C120.693 51.5882 120.702 51.3436 120.556 51.1874C120.411 51.0313 120.166 51.0227 120.01 51.1683C119.748 51.4125 119.539 51.6445 119.373 51.8799C119.309 51.8118 119.241 51.742 119.171 51.6704L119.003 51.5038C118.851 51.3542 118.606 51.3565 118.457 51.5088C118.307 51.6612 118.309 51.9059 118.462 52.0555C118.568 52.1593 118.665 52.2576 118.755 52.3508C118.635 52.3568 118.51 52.3652 118.378 52.3758Z" fill="#00160A"/>
<path fill-rule="evenodd" clip-rule="evenodd" d="M103.48 55.0542C103.387 54.959 103.237 54.9617 103.144 55.0601C103.052 55.1585 103.052 55.3154 103.145 55.4105C103.233 55.5008 103.311 55.5844 103.382 55.6622C103.233 55.7253 103.084 55.8069 102.924 55.9076L102.681 56.0632C102.575 56.131 102.552 56.2666 102.63 56.3661C102.707 56.4656 102.857 56.4914 102.963 56.4236L103.254 56.2381C103.406 56.1451 103.542 56.0748 103.68 56.0254C103.889 56.316 103.933 56.5023 103.906 56.6749L103.899 56.7159L103.896 56.7411C103.886 56.8665 103.968 56.9802 104.089 57.0015C104.218 57.0242 104.342 56.9332 104.366 56.7982L104.374 56.7501C104.414 56.4997 104.371 56.2473 104.192 55.9356C104.313 55.9337 104.446 55.9427 104.597 55.9619C104.728 55.9787 104.845 55.8956 104.859 55.7764C104.873 55.6571 104.779 55.5469 104.647 55.5301C104.36 55.4934 104.119 55.4892 103.899 55.519C103.808 55.4074 103.703 55.2883 103.582 55.1601L103.48 55.0542Z" fill="#E7EAEE"/>
<path fill-rule="evenodd" clip-rule="evenodd" d="M53.663 119.5L53.9294 120.092L54.5367 120.266C54.5695 120.275 54.5885 120.31 54.579 120.342C54.5761 120.353 54.5707 120.362 54.5632 120.369L54.1019 120.828L54.1277 121.489C54.129 121.524 54.1025 121.552 54.0683 121.554C54.0568 121.554 54.0453 121.551 54.0353 121.546L53.513 121.248C53.4967 121.239 53.477 121.237 53.4595 121.244L52.9009 121.466C52.8692 121.479 52.8332 121.463 52.8206 121.432C52.8163 121.421 52.8152 121.409 52.8172 121.398L52.9348 120.747L52.5418 120.228C52.5212 120.201 52.5266 120.162 52.5538 120.141C52.5622 120.135 52.5721 120.131 52.5825 120.129L53.2081 120.041L53.5543 119.492C53.5725 119.463 53.6107 119.454 53.6396 119.473C53.6499 119.479 53.658 119.489 53.663 119.5Z" fill="#00160A"/>
<path fill-rule="evenodd" clip-rule="evenodd" d="M57.2148 86.6434L57.4812 87.2354L58.0884 87.4097C58.1213 87.4191 58.1402 87.4533 58.1308 87.4862C58.1279 87.4963 58.1225 87.5055 58.115 87.513L57.6536 87.9723L57.6795 88.6332C57.6808 88.6674 57.6542 88.6961 57.6201 88.6975C57.6085 88.6979 57.5971 88.6951 57.5871 88.6894L57.0647 88.3919C57.0484 88.3826 57.0288 88.3813 57.0113 88.3882L56.4527 88.6101C56.4209 88.6227 56.385 88.6072 56.3723 88.5754C56.3681 88.5647 56.3669 88.553 56.369 88.5416L56.4866 87.8906L56.0936 87.3716C56.073 87.3444 56.0783 87.3056 56.1056 87.285C56.114 87.2786 56.1239 87.2745 56.1343 87.273L56.7599 87.1849L57.1061 86.6358C57.1243 86.6069 57.1625 86.5983 57.1914 86.6165C57.2016 86.623 57.2098 86.6323 57.2148 86.6434Z" fill="#00160A"/>
<path d="M65.2613 138.954C65.4597 138.81 65.7374 138.854 65.8815 139.053C66.0255 139.251 59.744 144.367 57.3072 146.712L57.024 146.987C55.6322 148.349 54.606 149.528 54.0276 150.46C53.4146 151.448 53.3753 151.984 53.771 152.204C55.2724 153.036 57.431 153.441 60.5226 152.929L60.8403 152.875C62.0171 152.669 70.8694 150.738 70.7293 150.789L70.6748 150.806C70.3957 150.88 66.7912 152.126 65.5471 152.443L65.3967 152.481C63.4949 152.959 62.0066 153.287 60.6677 153.509C57.3961 154.051 55.0587 153.933 53.3406 152.98C52.3492 152.431 52.4281 151.354 53.273 149.992C53.9376 148.921 55.1065 147.597 56.6915 146.072C59.1609 143.696 62.6341 140.862 65.2613 138.954Z" fill="white"/>
<path fill-rule="evenodd" clip-rule="evenodd" d="M111.396 77.5505C111.504 77.4788 111.649 77.5094 111.72 77.6189L113.314 80.0918C113.384 80.2013 113.354 80.3483 113.247 80.4201C113.139 80.4919 112.994 80.4613 112.923 80.3517L111.329 77.8789C111.259 77.7693 111.289 77.6223 111.396 77.5505Z" fill="#00160A"/>
<path fill-rule="evenodd" clip-rule="evenodd" d="M111.475 75.7237C111.598 75.6509 111.761 75.6875 111.839 75.8055L112.936 77.4689C113.014 77.5868 112.977 77.7414 112.854 77.8142C112.73 77.887 112.567 77.8504 112.489 77.7325L111.392 76.0691C111.314 75.9511 111.351 75.7965 111.475 75.7237Z" fill="#00160A"/>
</svg>
